<svg id="user" width="411" height="411" viewBox="0 0 411 411" fill="none" xmlns="http://www.w3.org/2000/svg">
	<path
		d="M250 143.5C250 168.077 230.077 188 205.5 188C180.923 188 161 168.077 161 143.5C161 118.923 180.923 99 205.5 99C230.077 99 250 118.923 250 143.5Z"
		stroke="#F9FAFF" stroke-width="27" data-duration="50" />
	<path
		d="M396 205.5C396 310.71 310.71 396 205.5 396C100.29 396 15 310.71 15 205.5C15 100.29 100.29 15 205.5 15C310.71 15 396 100.29 396 205.5Z"
		stroke="#F9FAFF" stroke-width="29" data-duration="50" />
	<path d="M88 357C88 286.86 140.383 230 205 230C269.617 230 322 286.86 322 357" stroke="#F9FAFF" stroke-width="29"
		data-duration="30" />
</svg>