<svg width="307" height="355" viewBox="0 0 307 355" fill="none" xmlns="http://www.w3.org/2000/svg" style="">
	<path d="M250 143.5C250 168.077 230.077 188 205.5 188C180.923 188 161 168.077 161 143.5C161 118.923 180.923 99 205.5 99C230.077 99 250 118.923 250 143.5Z" stroke="#F9FAFF" stroke-width="27" data-duration="50" class="mfSXYeKL_0"></path>
	<path d="M396 205.5C396 310.71 310.71 396 205.5 396C100.29 396 15 310.71 15 205.5C15 100.29 100.29 15 205.5 15C310.71 15 396 100.29 396 205.5Z" stroke="#F9FAFF" stroke-width="29" data-duration="50" class="mfSXYeKL_1"></path>
	<path d="M88 357C88 286.86 140.383 230 205 230C269.617 230 322 286.86 322 357" stroke="#F9FAFF" stroke-width="29" data-duration="30" class="mfSXYeKL_2"></path>
<style data-made-with="vivus-instant">.mfSXYeKL_0{stroke-dasharray:280 282;stroke-dashoffset:281;animation:mfSXYeKL_draw 452ms ease-in-out 0ms forwards;}.mfSXYeKL_1{stroke-dasharray:1198 1200;stroke-dashoffset:1199;animation:mfSXYeKL_draw 1928ms ease-in-out 452ms forwards;}.mfSXYeKL_2{stroke-dasharray:384 386;stroke-dashoffset:385;animation:mfSXYeKL_draw 619ms ease-in-out 2380ms forwards;}@keyframes mfSXYeKL_draw{100%{stroke-dashoffset:0;}}@keyframes mfSXYeKL_fade{0%{stroke-opacity:1;}94.44444444444444%{stroke-opacity:1;}100%{stroke-opacity:0;}}</style></svg>